<?xml version="1.0" encoding="UTF-8"?>
<svg xmlns="http://www.w3.org/2000/svg" xmlns:xlink="http://www.w3.org/1999/xlink" width="350pt" height="116.16pt" viewBox="0 0 350 116.16" version="1.1">
<defs>
<clipPath id="clip1">
  <path d="M 296 100 L 307 100 L 307 116.160156 L 296 116.160156 Z M 296 100 "/>
</clipPath>
<clipPath id="clip2">
  <path d="M 313 104 L 323 104 L 323 116.160156 L 313 116.160156 Z M 313 104 "/>
</clipPath>
</defs>
<g id="surface1">
<path style=" stroke:none;fill-rule:nonzero;fill:rgb(91.799927%,26.298523%,20.799255%);fill-opacity:1;" d="M 120.816406 31.828125 C 104.761719 31.828125 91.75 44.769531 91.75 60.734375 C 91.75 76.699219 104.761719 89.640625 120.816406 89.640625 C 136.871094 89.640625 149.882813 76.699219 149.882813 60.734375 C 149.882813 44.769531 136.871094 31.828125 120.816406 31.828125 M 136.960938 60.570313 C 136.960938 70.167969 129.730469 77.949219 120.816406 77.949219 C 111.898438 77.949219 104.671875 70.167969 104.671875 60.570313 C 104.671875 50.976563 111.898438 43.195313 120.816406 43.195313 C 129.730469 43.195313 136.960938 50.976563 136.960938 60.570313 "/>
<path style=" stroke:none;fill-rule:nonzero;fill:rgb(97.999573%,73.298645%,1.998901%);fill-opacity:1;" d="M 183.171875 31.828125 C 167.121094 31.828125 154.105469 44.769531 154.105469 60.734375 C 154.105469 76.699219 167.121094 89.640625 183.171875 89.640625 C 199.226563 89.640625 212.238281 76.699219 212.238281 60.734375 C 212.238281 44.769531 199.226563 31.828125 183.171875 31.828125 M 199.316406 60.570313 C 199.316406 70.167969 192.089844 77.949219 183.171875 77.949219 C 174.257813 77.949219 167.03125 70.167969 167.03125 60.570313 C 167.03125 50.976563 174.257813 43.195313 183.171875 43.195313 C 192.089844 43.195313 199.316406 50.976563 199.316406 60.570313 "/>
<path style=" stroke:none;fill-rule:nonzero;fill:rgb(20.399475%,65.899658%,32.199097%);fill-opacity:1;" d="M 279.957031 87.691406 L 291.648438 87.691406 L 291.648438 3.25 L 279.957031 3.25 Z M 279.957031 87.691406 "/>
<path style=" stroke:none;fill-rule:evenodd;fill:rgb(25.898743%,52.198792%,95.698547%);fill-opacity:1;" d="M 86.707031 47.746094 C 86.710938 47.542969 86.714844 46.988281 86.714844 47.746094 Z M 86.699219 47.746094 C 86.699219 47.84375 86.703125 47.816406 86.707031 47.746094 Z M 44.640625 89.609375 C 44.542969 89.613281 44.570313 89.613281 44.640625 89.617188 Z M 66.589844 21.429688 C 63.683594 18.703125 60.246094 16.503906 56.441406 14.996094 C 52.792969 13.554688 48.816406 12.761719 44.640625 12.761719 C 35.789063 12.761719 27.828125 16.324219 22.082031 22.09375 C 16.3125 27.886719 12.757813 35.914063 12.757813 44.800781 C 12.757813 53.691406 16.316406 61.726563 22.085938 67.523438 C 27.832031 73.300781 35.792969 76.871094 44.640625 76.871094 C 46.316406 76.871094 43.738281 76.90625 45.132813 76.890625 C 53.824219 76.800781 61.085938 74.132813 66.085938 69.238281 C 69.988281 65.421875 73.734375 60.144531 74.699219 52.613281 L 44.820313 52.613281 L 44.820313 40.921875 L 86.617188 40.921875 L 86.6875 47.140625 C 86.691406 47.472656 86.695313 47.65625 86.699219 47.746094 L 86.6875 47.746094 C 86.691406 60.710938 82.398438 71.074219 75.003906 78.308594 C 67.621094 85.535156 57.300781 89.472656 45.230469 89.597656 C 44.90625 89.601563 44.726563 89.605469 44.640625 89.609375 L 44.640625 89.617188 C 44.847656 89.625 45.429688 89.628906 44.640625 89.628906 C 32.289063 89.628906 21.140625 84.609375 13.066406 76.496094 C 4.980469 68.371094 0 57.160156 0 44.800781 C 0 32.4375 4.980469 21.238281 13.058594 13.125 C 21.136719 5.015625 32.289063 0.00390625 44.640625 0.00390625 C 50.457031 0.00390625 56.015625 1.113281 61.125 3.136719 C 66.40625 5.226563 71.210938 8.308594 75.308594 12.160156 "/>
<path style=" stroke:none;fill-rule:evenodd;fill:rgb(91.799927%,26.298523%,20.799255%);fill-opacity:1;" d="M 311.449219 69.03125 C 316.246094 80.464844 333.152344 80.589844 339.5625 69.910156 L 349.214844 76.382813 C 343.304688 85.042969 334.691406 89.101563 325.3125 89.152344 C 316.960938 89.160156 310.238281 86.03125 305.21875 80.960938 C 292.941406 68.570313 295.570313 49.558594 304.074219 40.546875 C 311.011719 33.195313 321.714844 29.457031 332.753906 33.464844 C 339.925781 36.070313 345.746094 42.378906 350 53.34375 C 337.140625 58.554688 324.328125 63.847656 311.449219 69.03125 M 309.511719 59.371094 L 335.46875 48.917969 C 330.886719 43.023438 324.230469 40.171875 315.453125 46.15625 C 312.082031 49.007813 309.128906 53.875 309.511719 59.371094 "/>
<path style=" stroke:none;fill-rule:nonzero;fill:rgb(25.898743%,52.198792%,95.698547%);fill-opacity:1;" d="M 245.527344 77.949219 C 236.613281 77.949219 229.386719 70.167969 229.386719 60.570313 C 229.386719 50.976563 236.613281 43.195313 245.527344 43.195313 C 252.277344 43.195313 258.058594 47.65625 260.46875 53.988281 C 260.664063 54.496094 260.835938 55.015625 260.984375 55.546875 C 261.058594 55.808594 261.128906 56.074219 261.1875 56.34375 C 261.191406 56.359375 261.195313 56.375 261.199219 56.394531 C 261.257813 56.644531 261.308594 56.898438 261.359375 57.15625 C 261.367188 57.199219 261.371094 57.242188 261.382813 57.285156 C 261.421875 57.515625 261.460938 57.75 261.492188 57.984375 C 261.503906 58.0625 261.511719 58.144531 261.519531 58.222656 C 261.546875 58.425781 261.574219 58.628906 261.589844 58.832031 C 261.605469 58.96875 261.609375 59.105469 261.621094 59.246094 C 261.632813 59.394531 261.644531 59.542969 261.652344 59.695313 C 261.664063 59.984375 261.671875 60.277344 261.671875 60.570313 C 261.671875 60.867188 261.664063 61.160156 261.652344 61.449219 C 261.644531 61.601563 261.632813 61.75 261.621094 61.902344 C 261.609375 62.039063 261.605469 62.175781 261.589844 62.3125 C 261.574219 62.519531 261.546875 62.71875 261.519531 62.921875 C 261.511719 63 261.503906 63.082031 261.492188 63.160156 C 261.460938 63.394531 261.421875 63.628906 261.382813 63.859375 C 261.371094 63.902344 261.367188 63.945313 261.359375 63.988281 C 261.308594 64.246094 261.257813 64.5 261.199219 64.75 C 261.195313 64.765625 261.191406 64.785156 261.1875 64.800781 C 261.128906 65.066406 261.058594 65.332031 260.984375 65.59375 L 260.984375 65.601563 C 260.835938 66.128906 260.664063 66.648438 260.46875 67.15625 C 258.058594 73.488281 252.277344 77.949219 245.527344 77.949219 M 260.46875 33.128906 L 260.46875 39.132813 C 256.132813 34.59375 250.578125 31.832031 244.882813 31.832031 C 229.09375 31.832031 216.949219 44.769531 216.949219 60.734375 C 216.949219 76.699219 229.09375 89.640625 244.882813 89.640625 C 250.757813 89.640625 256.230469 86.984375 260.46875 82.605469 L 260.46875 89.164063 C 260.46875 98.519531 252.554688 104.199219 246.429688 104.199219 C 237.789063 104.199219 233.167969 100.667969 230.070313 93.816406 L 219.132813 98.746094 C 221.738281 104.511719 225.539063 108.609375 229.992188 111.347656 C 235 114.429688 240.726563 115.527344 246.429688 115.527344 C 252.675781 115.527344 258.988281 112.890625 263.683594 108.71875 C 268.558594 104.378906 272.160156 96.066406 272.160156 88.40625 L 272.160156 33.128906 "/>
<path style=" stroke:none;fill-rule:nonzero;fill:rgb(25.898743%,57.998657%,96.499634%);fill-opacity:1;" d="M 280.585938 115.945313 L 282.59375 115.945313 L 282.59375 101.167969 L 280.585938 101.167969 Z M 280.585938 115.945313 "/>
<path style=" stroke:none;fill-rule:nonzero;fill:rgb(25.898743%,57.998657%,96.499634%);fill-opacity:1;" d="M 287.5625 104.964844 L 287.703125 106.601563 C 288.070313 106.019531 288.527344 105.566406 289.078125 105.242188 C 289.628906 104.921875 290.257813 104.761719 290.964844 104.761719 C 292.144531 104.761719 293.0625 105.109375 293.714844 105.804688 C 294.363281 106.496094 294.6875 107.566406 294.6875 109.015625 L 294.6875 115.945313 L 292.6875 115.945313 L 292.6875 109.054688 C 292.6875 108.085938 292.496094 107.402344 292.113281 106.996094 C 291.730469 106.589844 291.148438 106.386719 290.363281 106.386719 C 289.789063 106.386719 289.28125 106.527344 288.835938 106.800781 C 288.394531 107.078125 288.039063 107.457031 287.773438 107.9375 L 287.773438 115.945313 L 285.777344 115.945313 L 285.777344 104.964844 "/>
<g clip-path="url(#clip1)" clip-rule="nonzero">
<path style=" stroke:none;fill-rule:nonzero;fill:rgb(25.898743%,57.998657%,96.499634%);fill-opacity:1;" d="M 298.925781 110.871094 C 298.925781 111.980469 299.152344 112.871094 299.605469 113.535156 C 300.058594 114.203125 300.761719 114.535156 301.71875 114.535156 C 302.3125 114.535156 302.8125 114.398438 303.21875 114.128906 C 303.625 113.859375 303.953125 113.480469 304.214844 112.992188 L 304.214844 107.867188 C 303.953125 107.414063 303.621094 107.054688 303.214844 106.785156 C 302.804688 106.519531 302.3125 106.386719 301.738281 106.386719 C 300.777344 106.386719 300.066406 106.78125 299.609375 107.574219 C 299.152344 108.363281 298.925781 109.394531 298.925781 110.660156 Z M 296.925781 110.660156 C 296.925781 108.894531 297.304688 107.46875 298.058594 106.386719 C 298.8125 105.304688 299.867188 104.761719 301.230469 104.761719 C 301.871094 104.761719 302.441406 104.882813 302.941406 105.117188 C 303.4375 105.355469 303.863281 105.699219 304.214844 106.152344 L 304.214844 100.113281 L 306.214844 100.113281 L 306.214844 115.945313 L 304.578125 115.945313 L 304.34375 114.597656 C 303.988281 115.109375 303.546875 115.5 303.027344 115.765625 C 302.503906 116.027344 301.898438 116.160156 301.210938 116.160156 C 299.867188 116.160156 298.820313 115.675781 298.0625 114.703125 C 297.304688 113.730469 296.925781 112.453125 296.925781 110.871094 "/>
</g>
<path style=" stroke:none;fill-rule:nonzero;fill:rgb(25.898743%,57.998657%,96.499634%);fill-opacity:1;" d="M 311.148438 115.945313 L 309.148438 115.945313 L 309.148438 104.964844 L 311.148438 104.964844 Z M 311.148438 102.152344 L 309.148438 102.152344 L 309.148438 100.113281 L 311.148438 100.113281 Z M 311.148438 102.152344 "/>
<g clip-path="url(#clip2)" clip-rule="nonzero">
<path style=" stroke:none;fill-rule:nonzero;fill:rgb(25.898743%,57.998657%,96.499634%);fill-opacity:1;" d="M 317.445313 114.472656 C 318.171875 114.472656 318.824219 114.289063 319.40625 113.917969 C 319.988281 113.546875 320.367188 113.121094 320.542969 112.640625 L 320.542969 110.863281 L 318.300781 110.863281 C 317.492188 110.863281 316.851563 111.066406 316.367188 111.46875 C 315.882813 111.875 315.640625 112.347656 315.640625 112.898438 C 315.640625 113.382813 315.792969 113.765625 316.097656 114.050781 C 316.402344 114.332031 316.851563 114.472656 317.445313 114.472656 M 320.765625 115.945313 C 320.699219 115.617188 320.644531 115.324219 320.609375 115.070313 C 320.570313 114.816406 320.550781 114.558594 320.542969 114.300781 C 320.171875 114.828125 319.683594 115.273438 319.085938 115.625 C 318.488281 115.984375 317.84375 116.160156 317.152344 116.160156 C 316.011719 116.160156 315.136719 115.867188 314.539063 115.28125 C 313.941406 114.699219 313.640625 113.890625 313.640625 112.863281 C 313.640625 111.8125 314.066406 110.992188 314.914063 110.402344 C 315.765625 109.808594 316.914063 109.511719 318.371094 109.511719 L 320.542969 109.511719 L 320.542969 108.425781 C 320.542969 107.785156 320.347656 107.273438 319.953125 106.898438 C 319.5625 106.523438 319.007813 106.335938 318.289063 106.335938 C 317.644531 106.335938 317.125 106.5 316.722656 106.828125 C 316.320313 107.15625 316.117188 107.550781 316.117188 108.007813 L 314.210938 108.007813 L 314.1875 107.949219 C 314.148438 107.152344 314.527344 106.417969 315.320313 105.757813 C 316.117188 105.09375 317.144531 104.761719 318.402344 104.761719 C 319.644531 104.761719 320.648438 105.078125 321.40625 105.710938 C 322.164063 106.34375 322.542969 107.253906 322.542969 108.445313 L 322.542969 113.734375 C 322.542969 114.125 322.5625 114.503906 322.601563 114.871094 C 322.644531 115.238281 322.71875 115.59375 322.828125 115.945313 "/>
</g>
</g>
</svg>
